# xmcd
#
# Track frame offsets:
# 150
# 17278
# 29131
# 38549
# 53683
# 63999
# 73870
# 86636
# 102009
# 111347
#
# Disc length: 1731 seconds
#
# Revision: 0
# Processed by: cddbd v1.4PL0 Copyright (c) Steve Scherf et al.
# Submitted via: Audion 3.0.2 (http://www.panic.com/audion/)
#
DISCID=7c06c10a
DTITLE=Garth Forsythe - Henry Hite
DYEAR=1900
DGENRE=
TTITLE0=Henry Hite
TTITLE1=Cruel-Fisted Street
TTITLE2=Lumps
TTITLE3=Cornered by the Sun
TTITLE4=Foggy Turns
TTITLE5=Weak Knees
TTITLE6=Co-Pilots of Amoeba
TTITLE7=Mission: Swooper 9
TTITLE8=Sucker Punch Smile
TTITLE9=Cricket Slope
EXTD=
EXTT0=
EXTT1=
EXTT2=
EXTT3=
EXTT4=
EXTT5=
EXTT6=
EXTT7=
EXTT8=
EXTT9=
PLAYORDER=
